<svg xmlns="http://www.w3.org/2000/svg" viewBox="0 0 41 39">
    <defs>
        <style>.cls-1{fill:#3faaff;}.cls-2{fill:#d8e1f0;}.cls-3{fill:#fff;}.cls-4{fill:#f2f6fc;}.cls-5{fill:#ff3fca;}
        </style>
    </defs>
    <title>Ресурс 566</title>
    <g id="Слой_2" data-name="Слой 2">
        <g id="Слой_12" data-name="Слой 12">
            <circle class="cls-1" cx="20.5" cy="19.5" r="19.5"/>
            <rect class="cls-2" y="7" width="41" height="28" rx="4" ry="4"/>
            <rect class="cls-3" y="5" width="41" height="28" rx="4" ry="4"/>
            <rect class="cls-4" y="6" width="41" height="28" rx="4" ry="4"/>
            <path class="cls-5"
                  d="M0,11.68,15.45,24.21S18.18,26,20,26V24.21a5.67,5.67,0,0,1-3.64-1.79C14.55,20.63,0,9,0,9Z"/>
            <path class="cls-5"
                  d="M41,11.68,25.55,24.21S22.82,26,21,26V24.21a5.67,5.67,0,0,0,3.64-1.79C26.45,20.63,41,9,41,9Z"/>
            <rect class="cls-5" x="20" y="24" width="1" height="2"/>
        </g>
    </g>
</svg>